<svg width="775" height="96" viewBox="0 0 775 96" fill="none" xmlns="http://www.w3.org/2000/svg">
<path d="M0 64.9858C0.0866391 64.7981 0.216598 64.6393 0.259917 64.4371C0.447635 63.5707 0.93859 63.0076 1.83386 62.8776C2.83021 62.7332 3.71104 62.9642 4.30308 63.8451C4.60631 64.3072 4.85179 64.8125 5.08283 65.3179C5.87702 67.0074 6.64233 68.7257 7.4654 70.4152C9.40034 74.3717 11.523 78.2127 14.2377 81.7072C16.1004 84.1042 18.1942 86.2702 20.8511 87.8297C25.0243 90.27 29.4429 90.631 33.977 89.1293C37.7747 87.873 40.3449 85.2305 41.8323 81.5772C43.5362 77.4041 43.6372 73.1299 42.3665 68.8268C41.4279 65.6501 39.4208 63.1953 36.8505 61.1737C34.4679 59.2965 31.811 57.8525 29.0674 56.5963C26.0062 55.1956 22.8872 53.9105 19.8115 52.5387C16.3748 51.0225 13.0247 49.333 10.0213 47.0515C6.93113 44.7123 4.46191 41.8532 2.94573 38.2577C1.97826 36.0773 1.44399 33.7958 1.28515 31.4421C0.93859 26.3448 1.5595 21.3775 3.63884 16.6557C6.97445 9.13249 12.6926 4.32402 20.6201 2.20136C26.3961 0.656298 32.172 0.988415 37.8902 2.62012C39.3775 3.03887 40.8215 3.63091 42.2799 4.15074C43.4784 4.5695 44.287 4.67058 44.778 4.12186C45.2112 3.64535 45.6011 3.13995 46.0198 2.649C46.3808 2.23024 46.7274 1.78261 47.1317 1.40717C47.8104 0.786257 48.619 0.5119 49.5576 0.714058C50.3806 0.887336 50.8427 1.39273 50.9871 2.18692C51.0738 2.649 51.1026 3.12551 51.1026 3.58759C51.1026 11.3562 51.1026 19.1249 51.1026 26.8935C51.1026 27.3556 51.0738 27.8321 50.9871 28.2942C50.8427 29.1317 50.3518 29.6371 49.4998 29.8248C48.3013 30.0847 47.2472 29.6515 46.6696 28.5685C46.3664 28.0054 46.1353 27.3989 45.8899 26.8069C44.2004 22.6771 42.3521 18.6339 39.8973 14.894C38.5544 12.8435 37.0527 10.9375 35.1899 9.34909C31.1323 5.88352 26.5693 5.03157 21.5731 6.95207C18.9306 7.96286 16.9235 9.8256 15.6384 12.3381C13.3424 16.8434 13.0392 21.5363 14.7142 26.3015C15.5662 28.7129 17.1834 30.6045 19.1328 32.2074C21.5009 34.1567 24.1868 35.6007 26.9736 36.857C30.1504 38.2865 33.3705 39.6295 36.5617 41.0446C39.3197 42.2719 41.9911 43.6871 44.4747 45.4198C48.0558 47.9035 50.9871 50.9503 52.8065 54.979C54.1061 57.8525 54.6982 60.8849 54.7848 64.0184C54.9148 68.899 54.1639 73.6642 52.3445 78.2127C50.3951 83.1223 47.3916 87.2376 43.0019 90.2556C39.724 92.4937 36.0852 93.7933 32.172 94.3565C24.7066 95.425 17.6599 93.9089 10.9165 90.7321C9.09711 89.8657 8.93827 89.8657 7.4654 91.2664C6.87337 91.8295 6.29578 92.4215 5.67486 92.9558C3.37893 94.9341 2.67137 95.4395 1.7761 95.4395C0.635354 95.4539 0 94.6742 0 92.9558C0 83.6421 0 74.314 0 64.9858Z" fill="#130A16"/>
<path d="M544.094 43.8915C544.094 57.1762 544.094 70.4609 544.094 83.7311C544.094 84.4675 544.137 85.1895 544.195 85.9259C544.296 87.0811 544.874 87.9331 545.957 88.3374C546.664 88.5973 547.415 88.785 548.166 88.8861C550.881 89.2327 553.61 89.1172 556.31 88.7417C556.483 88.7128 556.657 88.684 556.83 88.6406C558.649 88.2074 559.27 87.4421 559.342 85.5794C559.371 84.6986 559.4 83.8177 559.4 82.9369C559.4 69.7966 559.415 56.6708 559.386 43.5305C559.386 42.4187 559.314 41.3068 559.155 40.2094C558.895 38.5488 557.87 37.4658 556.296 36.946C555.444 36.6572 554.534 36.5417 553.653 36.3395C553.307 36.2673 552.96 36.2095 552.642 36.0796C551.92 35.7763 551.531 35.1121 551.588 34.3179C551.632 33.5382 552.036 32.9606 552.787 32.7584C553.408 32.5996 554.058 32.5129 554.693 32.4841C559.935 32.3108 565.176 32.1664 570.432 32.0075C570.894 31.9931 571.371 32.0075 571.833 32.0797C572.728 32.2097 573.263 32.7295 573.407 33.6104C573.494 34.1591 573.522 34.7222 573.522 35.271C573.522 51.097 573.522 66.9375 573.522 82.7636C573.522 83.5867 573.537 84.4098 573.551 85.2328C573.551 85.4639 573.566 85.6949 573.595 85.9404C573.739 87.3122 574.447 88.2652 575.804 88.5684C576.887 88.7995 577.999 88.9006 579.096 89.0738C579.414 89.1172 579.746 89.146 580.049 89.2471C580.959 89.5359 581.378 90.1568 581.349 91.0954C581.32 92.0051 580.829 92.6116 579.876 92.7993C579.428 92.9004 578.952 92.9293 578.49 92.9293C569.104 92.9437 559.732 92.9004 550.346 92.9726C544.686 93.0159 539.04 93.2325 533.38 93.3625C533.004 93.3769 532.614 93.3769 532.239 93.348C531.055 93.2614 530.434 92.6549 530.318 91.4708C530.261 90.8644 530.304 90.2435 530.246 89.6226C530.203 89.2038 530.333 88.5973 529.827 88.4818C529.524 88.4096 529.077 88.7273 528.773 88.9728C527.329 90.1713 525.799 91.2542 524.095 92.0629C516.788 95.5573 506.695 94.4455 500.341 86.6046C497.583 83.1968 495.836 79.2836 494.768 75.0672C493.54 70.2587 493.165 65.3636 493.482 60.4252C493.742 56.3387 494.508 52.3533 495.98 48.5267C497.598 44.3392 499.923 40.6137 503.229 37.5524C507.027 34.0436 511.489 31.9498 516.644 31.3722C520.023 30.9968 523.373 31.1412 526.651 32.1231C527.358 32.3252 528.022 32.6285 528.716 32.8595C529.553 33.1339 529.856 32.9317 529.943 32.0653C529.972 31.7476 529.972 31.4155 529.972 31.0978C529.972 24.3544 529.986 17.611 529.957 10.8676C529.957 9.92901 529.9 8.99042 529.755 8.06627C529.539 6.65116 528.716 5.62594 527.344 5.19274C526.29 4.86062 525.178 4.71622 524.095 4.49963C523.748 4.42743 523.402 4.41299 523.055 4.31191C522.059 4.03755 521.597 3.38776 521.64 2.37697C521.683 1.45282 522.218 0.803025 523.2 0.644186C524.008 0.514228 524.831 0.485348 525.654 0.456468C530.752 0.29763 535.849 0.153231 540.946 0.00883291C541.379 -0.00560694 541.827 0.00883291 542.26 0.0521525C543.3 0.182111 543.892 0.788585 544.007 1.84269C544.065 2.44917 544.065 3.07008 544.065 3.69099C544.094 17.0912 544.094 30.4914 544.094 43.8915ZM530.001 61.5804C530.001 55.5156 529.943 49.4509 530.03 43.3861C530.058 41.4801 529.423 40.0361 528.095 38.7943C527.835 38.5488 527.575 38.3178 527.315 38.0867C524.196 35.372 517.915 34.2457 513.929 39.2563C512.817 40.6426 511.98 42.1732 511.316 43.8049C509.771 47.617 509.077 51.6169 508.716 55.6889C508.428 59.0823 508.298 62.4756 508.471 65.869C508.644 69.1613 509.034 72.3958 509.915 75.5726C510.637 78.1284 511.648 80.5543 513.308 82.6625C517.438 87.8753 524.802 88.0197 529.134 82.9947C529.654 82.3882 529.972 81.7239 529.972 80.9298C529.972 80.5543 529.986 80.1644 529.986 79.789C530.001 73.7098 530.001 67.6451 530.001 61.5804Z" fill="#130A16"/>
<path d="M207.472 43.8763C207.472 56.9588 207.472 70.0269 207.472 83.1094C207.472 83.9902 207.515 84.871 207.573 85.7519C207.66 87.1381 208.338 88.1056 209.681 88.4521C210.808 88.7409 211.977 88.9431 213.132 89.0297C215.356 89.1885 217.58 89.0586 219.789 88.7265C220.078 88.6831 220.367 88.6109 220.641 88.5243C221.998 88.12 222.619 87.3547 222.72 85.9251C222.778 85.0732 222.807 84.2212 222.807 83.3837C222.807 70.1857 222.821 57.0021 222.793 43.8041C222.793 42.5767 222.706 41.3349 222.518 40.1364C222.273 38.5913 221.32 37.5372 219.847 37.0318C218.937 36.7141 217.97 36.5842 217.031 36.3531C216.67 36.2665 216.28 36.1943 215.948 36.0355C215.226 35.7033 214.923 35.0969 214.966 34.3316C215.01 33.5807 215.371 33.0175 216.078 32.8009C216.656 32.6276 217.277 32.541 217.883 32.5121C220.814 32.411 223.746 32.3388 226.677 32.2522C228.958 32.18 231.254 32.1078 233.536 32.0501C234.085 32.0356 234.648 32.0356 235.196 32.1078C236.063 32.2233 236.583 32.6998 236.742 33.5662C236.843 34.1438 236.886 34.7359 236.886 35.3135C236.886 51.2406 236.886 67.1533 236.9 83.0805C236.9 83.9324 236.9 84.7844 236.944 85.6363C237.045 87.4558 237.824 88.3799 239.601 88.7409C240.568 88.9431 241.579 88.9864 242.561 89.1163C242.907 89.1597 243.268 89.2174 243.586 89.3329C244.409 89.6506 244.77 90.3004 244.712 91.2101C244.655 92.0332 244.178 92.6252 243.341 92.8129C242.864 92.914 242.359 92.9573 241.853 92.9573C233.406 92.9718 224.959 92.9285 216.526 92.9718C211.746 93.0007 206.967 93.1739 202.201 93.275C200.209 93.3183 198.216 93.3617 196.223 93.3905C196.05 93.3905 195.877 93.3761 195.703 93.3617C194.418 93.275 193.797 92.6685 193.682 91.3834C193.639 90.9502 193.667 90.5026 193.639 90.0694C193.624 89.7228 193.61 89.3618 193.552 89.0153C193.422 88.3799 193.176 88.2644 192.642 88.6109C192.281 88.8564 191.935 89.1452 191.603 89.4196C189.364 91.239 186.91 92.6685 184.094 93.3039C175.762 95.1811 168.802 92.8851 163.402 86.1995C160.6 82.7339 158.983 78.6908 157.972 74.4021C156.788 69.3626 156.47 64.2654 156.947 59.1248C157.423 53.9409 158.723 48.9736 161.293 44.3961C164.123 39.3422 168.051 35.429 173.423 33.1042C177.48 31.3569 181.711 30.9093 186.072 31.3425C188.036 31.5447 189.928 32.0067 191.776 32.7287C193.032 33.2197 193.335 33.0031 193.335 31.6169C193.335 24.3969 193.35 17.1914 193.335 9.97152C193.335 9.30729 193.249 8.62861 193.133 7.96438C192.888 6.57816 192.065 5.59624 190.736 5.17749C189.682 4.84537 188.57 4.70097 187.487 4.48438C187.083 4.39774 186.664 4.3833 186.274 4.25334C185.437 3.99342 185.018 3.35807 185.018 2.44836C185.018 1.59641 185.437 0.989932 186.245 0.730015C186.577 0.628936 186.938 0.571176 187.285 0.556736C190.563 0.441218 193.841 0.325699 197.133 0.22462C199.53 0.152421 201.941 0.0657815 204.338 0.00802214C204.772 -0.00641771 205.219 -0.00641771 205.653 0.0513417C206.692 0.1813 207.284 0.787774 207.4 1.82744C207.458 2.3184 207.457 2.82379 207.457 3.31475C207.472 16.8449 207.472 30.3606 207.472 43.8763ZM193.364 61.5795C193.364 55.2693 193.35 48.9736 193.379 42.6633C193.379 41.5515 193.104 40.5551 192.339 39.7609C191.574 38.9667 190.808 38.1292 189.899 37.4939C185.841 34.6203 180.599 35.3423 177.394 39.1256C176.498 40.1797 175.791 41.3638 175.199 42.62C173.654 45.8834 172.888 49.3634 172.383 52.9156C171.979 55.7892 171.82 58.6916 171.777 61.594C171.719 65.5649 171.935 69.507 172.759 73.3913C173.365 76.2504 174.26 78.994 175.849 81.4777C177.119 83.4415 178.708 85.0732 180.946 85.8963C185.047 87.4124 188.7 86.6182 191.906 83.6292C192.902 82.6906 193.393 81.6365 193.393 80.2214C193.335 74.0123 193.364 67.7887 193.364 61.5795Z" fill="#130A16"/>
<path d="M134.044 84.4951C133.452 84.6251 133.163 85.0583 132.846 85.4193C131.272 87.2098 129.568 88.856 127.59 90.1989C123.879 92.7259 119.792 93.9532 115.301 93.6211C109.034 93.1735 104.775 89.7368 102.926 83.8454C102.06 81.0729 101.887 78.2138 101.887 75.3258C101.887 64.2649 101.887 53.565 101.872 42.5185C101.872 41.7387 101.814 40.9301 101.685 40.1648C101.453 38.7064 100.573 37.7533 99.2153 37.2046C98.0024 36.7137 96.7172 36.5404 95.4321 36.526C90.7969 36.4826 86.1617 36.4971 81.5409 36.4826C81.3388 36.4826 81.1222 36.4971 80.9345 36.526C80.4146 36.6126 80.0681 36.887 79.9814 37.4212C79.9381 37.7389 79.9092 38.0566 79.9092 38.3887C79.9092 51.7311 79.8948 64.7125 79.9092 78.055C79.9092 79.5423 80.0248 81.044 80.4002 82.5024C80.4291 82.618 80.458 82.7335 80.4868 82.8346C81.4832 86.1991 84.7321 87.5853 87.88 85.9825C88.8331 85.4915 89.6561 84.8128 90.2915 83.9609C91.0279 82.979 91.6633 81.9249 92.3564 80.8996C92.6019 80.5386 92.804 80.1343 93.0928 79.8166C93.656 79.1668 94.3635 79.0369 95.1577 79.3546C95.9952 79.6867 96.4573 80.3365 96.414 81.174C96.3995 81.5494 96.3129 81.9393 96.1685 82.2714C94.8112 85.2893 93.0928 88.0618 90.5947 90.3C88.1688 92.4659 85.3242 93.6644 82.1041 93.9532C79.5482 94.1843 77.0068 94.011 74.5521 93.1302C70.7111 91.7584 68.3285 88.9859 67.0289 85.1883C66.2347 82.8923 65.8737 80.5098 65.8448 78.1127C65.7871 72.3368 65.8159 66.5609 65.8159 60.7849C65.8159 53.4783 65.8159 46.5328 65.8159 39.2407C65.8159 38.8363 65.8159 38.4176 65.8015 38.0133C65.7437 36.988 65.4261 36.6415 64.4008 36.627C62.7258 36.5982 61.0652 36.627 59.3902 36.6126C58.8126 36.6126 58.2206 36.5837 57.643 36.4826C56.6466 36.3238 56.1124 35.5296 56.069 34.591C56.0257 33.6524 56.5167 32.8149 57.4697 32.5694C57.8307 32.4828 58.2206 32.4395 58.596 32.4395C60.0978 32.425 61.5851 32.425 63.0868 32.425C63.4045 32.425 63.7366 32.425 64.0543 32.425C65.6715 32.4106 65.9603 32.1218 65.9603 30.5334C65.9603 26.7791 65.9603 23.0247 65.9603 19.2703C65.9603 18.7649 65.9603 18.274 65.9892 17.7686C66.047 16.7434 66.5379 15.9925 67.4765 15.5593C68.0108 15.3138 68.5595 15.1117 69.1082 14.8951C71.5774 13.9709 74.0467 13.0612 76.5303 12.1515C76.9346 12.0071 77.3678 11.8627 77.7866 11.7616C78.8696 11.5595 79.6349 12.036 79.8082 13.1478C79.8948 13.7254 79.8948 14.3175 79.8948 14.8951C79.8948 20.0501 79.8948 25.2196 79.8948 30.3746C79.8948 30.6634 79.8804 30.9666 79.9237 31.2554C80.0248 32.0352 80.3424 32.3384 81.1077 32.4106C81.3388 32.4395 81.5698 32.425 81.8153 32.425C86.6238 32.4106 91.4322 32.4539 96.2407 32.3817C100.602 32.3095 104.977 32.1074 109.338 31.963C110.767 31.9196 112.211 31.8763 113.641 31.8763C115.229 31.8763 115.879 32.5261 115.966 34.1001C115.994 34.5333 115.994 34.9809 115.994 35.4141C115.994 47.789 115.994 60.164 116.009 72.5389C116.009 74.7338 116.052 76.9431 116.644 79.0802C116.861 79.8599 117.135 80.6541 117.496 81.3761C118.579 83.5566 120.413 84.6395 122.81 84.8706C125.756 85.1594 128.225 84.1775 130.333 82.1703C131.589 80.9718 132.658 79.6145 133.582 78.1416C134.03 77.4341 134.29 76.6687 134.275 75.8168C134.261 75.4991 134.29 75.167 134.29 74.8493C134.29 64.1783 134.29 53.5072 134.29 42.8362C134.29 41.8976 134.246 40.959 134.116 40.0348C133.9 38.5042 132.99 37.4646 131.575 36.9303C130.781 36.6415 129.943 36.4971 129.12 36.2805C128.673 36.165 128.196 36.1072 127.763 35.9484C126.998 35.6596 126.622 35.0531 126.637 34.2445C126.651 33.4214 127.026 32.8438 127.821 32.5839C128.182 32.4684 128.557 32.4106 128.933 32.3962C132.514 32.2662 136.08 32.1507 139.661 32.0352C141.596 31.9774 143.531 31.9341 145.466 31.8474C147.156 31.7752 148.311 32.064 148.311 34.6632C148.296 45.0744 148.311 55.4855 148.311 65.8966C148.311 71.7881 148.311 77.6795 148.311 83.571C148.311 84.1919 148.311 84.7984 148.354 85.4193C148.455 86.9066 149.192 87.9896 150.636 88.4372C151.545 88.726 152.513 88.856 153.466 89.0437C153.87 89.1303 154.289 89.1592 154.679 89.2747C155.56 89.5347 156.065 90.2711 156.007 91.123C155.964 91.9605 155.444 92.567 154.549 92.7547C154.159 92.8414 153.74 92.8847 153.336 92.8847C147.964 92.8991 142.607 92.8847 137.235 92.8847C137.149 92.8847 137.062 92.8847 136.976 92.8847C135.243 92.8269 134.506 92.1194 134.477 90.401C134.449 88.8415 134.463 87.2965 134.449 85.737C134.391 85.3615 134.405 84.9139 134.044 84.4951Z" fill="#130A16"/>
<path d="M377.835 49.3935C382.557 49.3935 387.279 49.3935 392.001 49.3935C392.549 49.3935 393.112 49.4224 393.661 49.4946C394.614 49.6246 395.163 50.2022 395.264 51.083C395.38 52.1515 394.975 52.9313 394.022 53.2345C393.329 53.4511 392.593 53.5378 391.871 53.6822C391.553 53.7399 391.235 53.7977 390.918 53.8699C388.694 54.433 387.697 55.5449 387.466 57.8408C387.351 58.9527 387.308 60.0646 387.308 61.1764C387.293 68.714 387.25 76.2516 387.336 83.7748C387.351 85.8108 386.615 87.1104 384.867 88.1212C380.506 90.6193 375.857 92.3376 370.976 93.464C366.962 94.3881 362.904 94.9224 358.774 94.8357C352.652 94.7058 346.804 93.4062 341.346 90.576C334.328 86.9371 329.115 81.4933 325.447 74.5333C322.863 69.6382 321.303 64.411 320.437 58.9671C319.642 53.9421 319.383 48.8737 319.772 43.8053C320.61 32.8888 324.047 22.9542 331.281 14.5502C336.811 8.12442 343.685 3.80691 352.017 1.94417C356.291 0.991137 360.608 0.904497 364.955 1.42433C369.186 1.92973 373.214 3.09936 377.026 4.99098C377.156 5.06318 377.286 5.12093 377.431 5.17869C378.268 5.52525 378.701 5.43861 379.308 4.7455C379.77 4.21122 380.189 3.64807 380.622 3.09936C381.026 2.59396 381.416 2.07413 381.864 1.61205C382.557 0.904497 383.394 0.529061 384.405 0.731219C385.243 0.890058 385.763 1.39545 385.907 2.2474C385.994 2.73836 386.037 3.24375 386.037 3.73471C386.051 11.9077 386.037 20.0951 386.037 28.268C386.037 28.6435 386.008 29.0333 385.965 29.4088C385.878 30.2896 385.517 30.9827 384.578 31.2282C383.597 31.4881 382.701 31.3004 382.023 30.5062C381.705 30.1308 381.488 29.6687 381.272 29.221C380.261 27.0695 379.322 24.8891 378.254 22.7664C376.55 19.3442 374.658 16.0519 372.232 13.0773C370.904 11.46 369.446 9.98716 367.756 8.75978C362.283 4.75994 354.919 5.00542 349.634 8.74534C346.616 10.8824 344.45 13.7271 342.746 16.9472C340.826 20.5716 339.613 24.4559 338.746 28.4413C337.822 32.6866 337.259 36.9897 337.129 41.3361C337.014 45.0616 336.898 48.787 337.028 52.4981C337.274 59.4581 338.169 66.3315 340.479 72.9594C341.707 76.4971 343.324 79.8327 345.634 82.8073C347.511 85.2188 349.764 87.1971 352.522 88.5688C355.814 90.2005 359.294 90.5327 362.89 90.085C365.359 89.7818 367.698 89.0742 369.85 87.7891C369.98 87.7169 370.095 87.6302 370.225 87.5581C371.626 86.7927 372.204 85.6809 372.189 84.0492C372.117 76.5404 372.16 69.0317 372.146 61.5374C372.146 60.6566 372.102 59.7758 371.973 58.9094C371.713 57.2199 370.817 55.9348 369.301 55.0973C367.944 54.3464 366.471 53.9998 364.955 53.7688C364.002 53.6244 363.034 53.5522 362.081 53.3934C360.912 53.2056 360.305 52.4837 360.334 51.3429C360.363 50.3899 360.883 49.7112 361.821 49.5524C362.399 49.4513 362.991 49.4224 363.569 49.4224C368.334 49.3935 373.084 49.3935 377.835 49.3935Z" fill="#130A16"/>
<path d="M687.989 65.61C687.989 71.5303 687.989 77.4506 687.989 83.371C687.989 84.194 688.033 85.0171 688.105 85.8257C688.22 87.3275 688.914 88.2083 690.386 88.5838C691.368 88.8292 692.408 88.9014 693.419 89.0603C693.736 89.1036 694.054 89.1469 694.357 89.248C695.195 89.5368 695.614 90.1866 695.585 91.0674C695.556 91.9338 695.079 92.5547 694.213 92.7713C693.823 92.8724 693.404 92.9157 693 92.9157C685.405 92.9301 677.809 92.9301 670.228 92.9157C669.824 92.9157 669.405 92.8724 669.015 92.7713C668.149 92.5691 667.658 91.9482 667.6 91.0818C667.543 90.2732 668.019 89.5223 668.828 89.248C669.348 89.0747 669.911 88.9881 670.459 88.9159C672.914 88.5838 673.781 87.6596 673.882 85.1904C673.896 84.8727 673.911 84.5406 673.911 84.2229C673.911 73.2053 673.911 62.1733 673.896 51.1557C673.896 49.2207 673.708 47.3002 673.189 45.423C672.062 41.351 669.116 39.6327 664.785 40.2825C662.517 40.6146 660.712 41.8564 659.124 43.4448C657.969 44.5855 657.016 45.8851 656.193 47.2713C655.803 47.9356 655.557 48.6431 655.557 49.4373C655.557 49.8705 655.529 50.3181 655.529 50.7513C655.529 61.6534 655.529 72.57 655.529 83.472C655.529 84.2662 655.529 85.0604 655.601 85.8402C655.745 87.5296 656.482 88.3672 658.142 88.757C658.763 88.9014 659.413 88.9592 660.048 89.0891C661.333 89.3635 661.969 90.3887 661.608 91.5584C661.42 92.1793 661.016 92.5836 660.409 92.728C659.962 92.8435 659.485 92.9013 659.023 92.9013C651.514 92.9157 644.02 92.9157 636.511 92.9013C636.078 92.9013 635.63 92.858 635.212 92.7569C634.36 92.5547 633.854 91.9049 633.825 91.053C633.797 90.2155 634.259 89.479 635.082 89.248C635.746 89.0603 636.468 89.0169 637.161 88.9159C637.739 88.8292 638.331 88.7715 638.894 88.6271C640.526 88.2083 641.262 87.313 641.363 85.638C641.421 84.7861 641.45 83.9341 641.45 83.0966C641.45 70.0574 641.464 57.0038 641.435 43.9646C641.435 42.6795 641.363 41.3799 641.175 40.1092C640.944 38.5641 639.991 37.4956 638.533 36.9757C637.681 36.6725 636.786 36.5281 635.905 36.3115C635.616 36.2393 635.327 36.196 635.053 36.0949C634.273 35.8061 633.811 35.113 633.84 34.3332C633.869 33.5246 634.418 32.8315 635.255 32.6438C635.76 32.5283 636.295 32.4705 636.829 32.4561C642.013 32.2828 647.197 32.1384 652.381 31.9795C652.698 31.9651 653.03 31.994 653.348 32.0229C654.547 32.1528 655.139 32.716 655.225 33.9434C655.298 34.8242 655.269 35.705 655.269 36.5859C655.283 37.7555 655.254 38.9251 655.312 40.1092C655.355 41.2499 655.89 41.2499 656.525 40.5424C657.911 39.0262 659.341 37.5533 660.958 36.2826C663.875 34.0156 667.095 32.4127 670.763 31.8063C673.679 31.3297 676.553 31.4164 679.34 32.4561C683.08 33.8567 685.405 36.6292 686.733 40.3113C687.744 43.1415 688.018 46.0728 688.004 49.0474C687.975 54.5923 687.989 60.1084 687.989 65.61Z" fill="#130A16"/>
<path d="M725.662 32.4417C727.164 32.4417 728.651 32.4417 730.153 32.4562C730.528 32.4562 730.918 32.4995 731.279 32.5861C732.247 32.8316 732.723 33.6691 732.68 34.6077C732.637 35.5463 732.102 36.3405 731.106 36.4993C730.528 36.586 729.936 36.6148 729.359 36.6293C727.684 36.6437 726.023 36.6148 724.348 36.6437H718.572C718.37 36.6437 718.153 36.6582 717.966 36.687C717.446 36.7737 717.099 37.048 717.013 37.5823C716.969 37.9 716.941 38.2177 716.941 38.5498C716.941 51.8922 716.926 64.7292 716.941 78.0716C716.941 79.559 717.056 81.0607 717.431 82.5191C717.46 82.6346 717.489 82.7502 717.518 82.8512C718.514 86.2157 721.763 87.602 724.911 85.9991C725.864 85.5082 726.687 84.8295 727.323 83.9775C728.059 82.9956 728.695 81.9415 729.388 80.9163C729.633 80.5553 729.835 80.151 730.124 79.8333C730.687 79.1835 731.395 79.0536 732.189 79.3712C733.026 79.7033 733.489 80.3531 733.445 81.1907C733.431 81.5661 733.344 81.956 733.2 82.2881C731.842 85.306 730.124 88.0785 727.626 90.3166C725.2 92.4826 722.355 93.6811 719.135 93.9699C716.579 94.201 714.038 94.0277 711.583 93.1469C707.742 91.7751 705.36 89.0026 704.06 85.2049C703.266 82.909 702.905 80.5264 702.876 78.1294C702.818 72.3535 702.847 66.5775 702.847 60.8016C702.847 53.495 702.847 46.5495 702.847 39.2573C702.847 38.853 702.847 38.4343 702.833 38.0299C702.775 37.0047 702.457 36.6582 701.432 36.6437C699.757 36.6148 698.097 36.6437 696.421 36.6293C695.844 36.6293 695.252 36.6004 694.674 36.4993C693.678 36.3405 693.144 35.5463 693.1 34.6077C693.057 33.6691 693.548 32.8316 694.501 32.5861C694.862 32.4995 695.252 32.4562 695.627 32.4562C697.129 32.4417 698.616 32.4417 700.118 32.4417C700.436 32.4417 700.768 32.4417 701.086 32.4417C702.703 32.4273 702.992 32.1385 702.992 30.5501C702.992 26.7957 702.992 23.0414 702.992 19.287C702.992 18.7816 702.992 18.2907 703.02 17.7853C703.078 16.76 703.569 16.0092 704.508 15.576C705.042 15.3305 705.591 15.1283 706.139 14.9117C708.609 13.9876 711.078 13.0779 713.562 12.1682C713.966 12.0238 714.399 11.8794 714.818 11.7783C715.915 11.5328 716.681 12.0238 716.854 13.1212C716.941 13.6988 716.941 14.2908 716.941 14.8684C716.941 20.0234 716.941 25.1929 716.941 30.3479C716.941 30.6367 716.926 30.94 716.969 31.2288C717.07 32.0085 717.388 32.3118 718.153 32.384C718.384 32.4128 718.616 32.3984 718.861 32.3984L725.662 32.4417Z" fill="#130A16"/>
<path d="M485.786 65.7389C485.786 70.634 485.786 75.5291 485.786 80.4242C485.786 81.7383 485.829 83.0667 486.132 84.3519C486.566 86.1424 487.62 87.081 489.829 86.9077C490.32 86.8644 490.811 86.7633 491.302 86.6911C491.619 86.6478 491.937 86.6045 492.269 86.6045C493.035 86.6045 493.641 86.9222 493.944 87.6586C494.248 88.395 494.175 89.117 493.612 89.6946C493.266 90.0412 492.861 90.3444 492.428 90.6043C490.089 91.9906 487.634 93.0591 484.905 93.3912C482.999 93.6223 481.107 93.6078 479.23 93.1457C476.631 92.496 474.811 90.922 473.7 88.525C473.396 87.8608 473.18 87.1532 472.905 86.4745C472.544 85.5648 472.198 85.4782 471.505 86.1424C470.768 86.85 470.075 87.6153 469.31 88.3084C466.841 90.5755 464.054 92.3227 460.776 93.2035C457.31 94.1277 453.859 94.0266 450.48 92.857C446.538 91.4996 443.737 88.8427 442.264 84.9584C440.3 79.7745 440.705 74.7205 443.593 69.9409C444.979 67.6594 446.971 65.9988 449.238 64.6415C452.228 62.8509 455.419 61.5514 458.754 60.5983C462.307 59.5875 465.888 58.7211 469.454 57.7826C469.772 57.6959 470.075 57.6237 470.378 57.5226C471.404 57.1761 471.721 56.8151 471.721 55.7321C471.721 52.5698 471.75 49.393 471.635 46.2307C471.591 44.8444 471.288 43.4438 470.97 42.072C470.768 41.2056 470.407 40.3392 469.989 39.545C469.007 37.6245 467.418 36.4693 465.281 36.0795C462.913 35.6463 460.949 36.3683 459.447 37.3502C458.249 38.0866 458.119 38.5776 458.812 39.7905C459.996 41.8265 460.559 43.9925 460.314 46.3606C459.953 49.8695 457.657 52.5986 454.264 53.2484C449.831 54.086 446.61 51.7323 445.527 48.1367C444.43 44.4835 445.239 41.1767 447.665 38.2743C449.166 36.4693 451.087 35.1698 453.195 34.1734C456.025 32.8305 458.307 32.0796 461.411 31.7042C464.097 31.3721 465.7 31.2999 468.4 31.5165C470.711 31.7042 472.992 32.0941 475.172 32.9027C480.27 34.751 483.461 38.3321 484.876 43.5449C485.454 45.682 485.699 47.8624 485.714 50.0717C485.786 55.3133 485.771 60.5261 485.786 65.7389ZM471.765 70.8217C471.779 70.8217 471.779 70.8217 471.794 70.8217C471.794 69.8543 471.794 68.8868 471.794 67.9193C471.779 66.2443 471.794 64.5837 471.75 62.9087C471.721 61.869 471.389 61.6236 470.364 61.8257C470.22 61.8546 470.075 61.8979 469.945 61.9412C468.631 62.36 467.317 62.7499 466.018 63.2119C463.909 63.9628 461.888 64.887 460.097 66.2443C458.177 67.7027 456.935 69.5799 456.386 71.9336C455.895 74.0707 455.838 76.2367 456.126 78.3882C456.271 79.4712 456.588 80.5686 456.993 81.5939C457.686 83.3267 458.899 84.5974 460.718 85.2038C462.841 85.9114 464.877 85.6515 466.826 84.5829C468.472 83.6732 469.786 82.4025 470.898 80.9008C471.461 80.1499 471.765 79.3268 471.75 78.3738C471.765 75.8613 471.765 73.3343 471.765 70.8217Z" fill="#130A16"/>
<path d="M300.032 62.2134C299.989 67.8883 299.007 73.361 296.567 78.5016C294.285 83.3245 291.022 87.3099 286.473 90.169C282.315 92.7826 277.752 93.9811 272.856 93.9089C267.268 93.8223 262.171 92.2339 257.709 88.8405C253.984 86.0103 251.312 82.3426 249.449 78.0828C247.774 74.2563 246.908 70.242 246.59 66.0833C246.229 61.4914 246.547 56.9429 247.702 52.481C249.06 47.2826 251.413 42.6186 255.182 38.7342C259.471 34.3156 264.655 31.7309 270.806 31.1533C276.943 30.5902 282.632 31.8753 287.758 35.3698C291.946 38.2144 294.906 42.0987 296.942 46.6906C298.545 50.315 299.455 54.1127 299.787 58.0548C299.902 59.4699 299.96 60.8417 300.032 62.2134ZM261.651 62.0835C261.651 63.6719 261.608 65.2458 261.666 66.8342C261.723 68.4081 261.839 69.9965 261.983 71.5705C262.243 74.4873 262.691 77.3897 263.543 80.2055C264.25 82.5592 265.232 84.754 266.835 86.6457C270.084 90.4722 277.737 91.0787 281.044 85.4616C281.939 83.931 282.603 82.3137 283.065 80.6098C283.99 77.2886 284.437 73.8953 284.611 70.4586C284.769 67.3251 284.842 64.1917 284.842 61.0583C284.856 56.7407 284.582 52.4521 283.773 48.1923C283.268 45.5065 282.546 42.8785 281.174 40.4815C279.383 37.3336 276.726 35.5719 273.044 35.5142C270.026 35.4564 267.514 36.4672 265.781 39.023C265.117 40.0049 264.554 41.1024 264.106 42.1998C262.98 44.9578 262.503 47.8891 262.171 50.8348C261.738 54.5892 261.579 58.3291 261.651 62.0835Z" fill="#130A16"/>
<path d="M614.142 61.5788C609.623 61.5788 605.117 61.5788 600.598 61.5788C600.107 61.5788 599.601 61.5788 599.11 61.6221C598.359 61.6799 598.042 61.9543 598.013 62.7196C597.984 63.7159 598.013 64.7123 598.071 65.7086C598.287 68.9287 598.793 72.1055 599.803 75.1956C600.525 77.3471 601.479 79.3832 602.793 81.2315C607.457 87.8449 616.438 88.7113 622.359 83.5996C624.192 82.0112 625.709 80.1629 627.051 78.1558C627.34 77.7226 627.629 77.2605 627.961 76.8706C628.582 76.1486 629.448 75.9898 630.257 76.423C631.109 76.8706 631.513 77.7081 631.311 78.6179C631.253 78.8778 631.181 79.1377 631.066 79.3687C628.9 83.4985 626.171 87.1662 622.344 89.9098C619.398 92.018 616.121 93.2743 612.539 93.7075C607.283 94.3428 602.244 93.6786 597.508 91.2672C592.54 88.7257 589.031 84.7837 586.591 79.8308C584.844 76.2642 583.847 72.4954 583.385 68.5533C582.779 63.5282 582.981 58.5465 584.122 53.6225C585.378 48.222 587.645 43.3124 591.371 39.1537C594.923 35.1972 599.24 32.497 604.496 31.5006C610.547 30.3599 616.236 31.2551 621.348 34.8362C624.539 37.0744 626.835 40.0923 628.51 43.5868C630.199 47.1101 631.123 50.85 631.456 54.7343C631.571 56.0484 631.571 57.3624 631.629 58.6909C631.643 58.9508 631.629 59.2251 631.6 59.485C631.456 60.7846 630.892 61.3622 629.607 61.5211C629.203 61.5644 628.784 61.5933 628.38 61.5933C623.644 61.5788 618.893 61.5788 614.142 61.5788ZM607.543 57.3624C607.543 57.3335 607.543 57.2902 607.543 57.2613C609.94 57.2613 612.352 57.2613 614.749 57.2613C615.153 57.2613 615.572 57.2613 615.976 57.218C616.655 57.1314 616.944 56.8281 617.059 56.1494C617.117 55.7451 617.189 55.3408 617.175 54.9221C617.131 52.6983 617.146 50.4746 616.987 48.2508C616.828 45.8827 616.337 43.5579 615.456 41.3342C614.85 39.818 614.056 38.4317 612.843 37.3199C611.052 35.7026 608.944 35.2405 606.633 35.7604C604.756 36.1791 603.413 37.3776 602.33 38.8938C601.132 40.5833 600.381 42.4893 599.803 44.4676C598.98 47.2834 598.533 50.1713 598.244 53.0882C598.143 54.0557 598.085 55.0087 598.056 55.9762C598.027 56.9292 598.331 57.2324 599.284 57.3335C599.544 57.3624 599.803 57.3624 600.078 57.3624C602.561 57.3624 605.06 57.3624 607.543 57.3624Z" fill="#130A16"/>
<path d="M734.41 82.7926C734.41 79.9479 734.41 77.1033 734.41 74.2586C734.41 73.1323 734.728 72.2948 735.695 71.9771C737.428 71.4284 738.8 72.7135 739.536 74.0131C741.197 76.9444 742.872 79.8757 744.908 82.576C746.222 84.3087 747.637 85.9549 749.399 87.2545C751.695 88.9439 754.265 89.6804 757.095 89.406C759.781 89.1461 761.904 87.8754 763.203 85.4784C764.936 82.2583 764.965 78.966 763.232 75.7315C762.51 74.3886 761.369 73.4067 760.127 72.5403C758.178 71.1974 756.041 70.2443 753.861 69.3924C751.305 68.3816 748.706 67.443 746.164 66.3889C743.825 65.4214 741.63 64.194 739.695 62.5334C736.952 60.1797 735.363 57.1907 734.901 53.6096C734.453 50.1585 734.699 46.7507 735.897 43.4728C738.121 37.4081 742.468 33.596 748.662 31.9354C754.121 30.477 759.406 31.0979 764.503 33.5093C766.308 34.3613 766.409 34.3469 767.651 32.7874C768.185 32.1087 768.763 31.5022 769.658 31.3C771.073 30.9824 772.113 31.7044 772.243 33.1483C772.286 33.6682 772.3 34.2025 772.3 34.7223C772.3 39.0687 772.3 43.4006 772.3 47.747C772.3 48.1514 772.286 48.5701 772.271 48.9744C772.228 49.913 771.997 50.7361 771.001 51.0826C769.99 51.4292 769.008 51.2992 768.228 50.5195C767.853 50.1585 767.578 49.6964 767.304 49.2488C766.135 47.285 765.008 45.2923 763.81 43.3429C762.698 41.5379 761.442 39.8484 759.911 38.3756C758.655 37.1482 757.24 36.1807 755.507 35.7764C750.814 34.679 746.482 37.5092 745.688 42.2743C745.514 43.2996 745.486 44.3826 745.587 45.4222C745.774 47.4149 746.8 48.9889 748.33 50.274C749.514 51.2559 750.814 52.0646 752.214 52.6566C754.554 53.6529 756.936 54.5915 759.304 55.5012C762.207 56.6131 765.08 57.7972 767.694 59.5155C772.069 62.389 774.553 66.3889 774.928 71.645C775.318 77.1321 774.149 82.2005 770.799 86.648C767.752 90.6912 763.608 92.9293 758.64 93.6802C753.182 94.5033 748.114 93.2326 743.247 90.85C741.529 90.0125 741.37 90.0125 740.099 91.4131C739.594 91.9763 739.089 92.5539 738.54 93.0737C737.89 93.6946 737.096 93.9546 736.201 93.8535C735.349 93.7524 734.786 93.2903 734.598 92.4528C734.497 92.0052 734.453 91.5287 734.453 91.0666C734.41 88.3086 734.41 85.5506 734.41 82.7926Z" fill="#130A16"/>
<path d="M418.855 39.2983C420.025 37.9843 422.855 32.8293 429.079 31.4864C431.043 31.1831 433.006 31.2698 434.884 31.9918C438.349 33.3347 440.125 35.9916 440.573 39.5871C440.833 41.6231 440.573 43.6303 439.663 45.5075C438.147 48.6265 435.273 50.186 431.996 49.7961C428.443 49.3773 425.902 46.9948 425.295 43.5725C425.151 42.7928 425.122 41.9986 425.108 41.2188C425.064 39.9192 424.646 39.6449 423.563 40.3813C422.61 41.0311 420.083 43.7891 418.234 47.5435C417.729 48.511 417.628 49.5506 417.628 50.6192C417.628 54.0559 417.628 57.4781 417.628 60.9148C417.628 68.3946 417.628 75.86 417.628 83.3399C417.628 84.1341 417.671 84.9283 417.743 85.708C417.845 86.9932 418.509 87.9462 419.736 88.3361C420.675 88.6249 421.671 88.7693 422.653 88.9281C423.346 89.0292 424.054 89.0292 424.747 89.1014C425.093 89.1447 425.454 89.2025 425.772 89.318C426.523 89.6068 426.927 90.2999 426.884 91.1374C426.841 91.9316 426.407 92.5525 425.628 92.7547C425.209 92.8702 424.761 92.9279 424.328 92.9279C415.736 92.9424 407.145 92.9424 398.567 92.9279C398.134 92.9279 397.686 92.8702 397.268 92.7691C396.459 92.5669 395.983 91.946 395.939 91.1085C395.896 90.271 396.3 89.549 397.066 89.3035C397.759 89.1014 398.495 89.0436 399.217 88.9281C399.766 88.8415 400.329 88.7981 400.863 88.6826C402.567 88.2783 403.347 87.3686 403.462 85.6069C403.506 85.0005 403.506 84.3795 403.506 83.7586C403.506 69.983 403.506 56.2074 403.491 42.4318C403.491 41.7098 403.419 40.9734 403.304 40.2514C403.044 38.7207 402.192 37.5944 400.733 37.0457C399.867 36.7136 398.928 36.5692 398.019 36.3382C397.701 36.266 397.383 36.2226 397.08 36.0927C396.315 35.7894 395.882 35.0963 395.925 34.3021C395.968 33.5368 396.43 32.9015 397.21 32.6993C397.773 32.5549 398.365 32.4827 398.943 32.4683C404.098 32.295 409.253 32.1506 414.408 31.9918C414.581 31.9918 414.754 31.9773 414.942 31.9918C416.617 32.0495 417.281 32.6993 417.325 34.3599C417.368 35.8761 417.339 37.4067 417.368 38.9373C417.411 39.9626 417.96 40.3091 418.855 39.2983Z" fill="#130A16"/>
<path d="M574.574 12.8016C574.502 15.3719 573.809 17.6823 571.975 19.5306C569.636 21.9132 566.734 22.433 563.615 21.6244C560.568 20.8302 558.734 18.7075 557.969 15.704C557.434 13.6103 557.55 11.5309 558.228 9.46602C559.225 6.44809 562.026 3.40128 566.907 3.7334C570.502 3.97888 573.506 6.66469 574.271 10.4479C574.43 11.2277 574.473 12.0219 574.574 12.8016Z" fill="#130A16"/>
<path d="M221.059 13.1195C221.059 11.2279 221.405 9.46625 222.358 7.86342C224.12 4.87437 226.791 3.50259 230.228 3.7625C233.462 4.00798 235.816 5.65412 237.072 8.64317C238.386 11.7477 238.271 14.8956 236.61 17.8702C235.195 20.4116 232.943 21.769 230.04 21.9278C227.109 22.1011 224.611 21.177 222.791 18.7799C221.521 17.1049 221.059 15.1555 221.059 13.1195Z" fill="#130A16"/>
</svg>
